<?xml version="1.0" encoding="UTF-8" standalone="no"?>
<!-- Created with Inkscape (http://www.inkscape.org/) -->

<svg
     xmlns:dc="http://purl.org/dc/elements/1.1/"
     xmlns:cc="http://creativecommons.org/ns#"
     xmlns:rdf="http://www.w3.org/1999/02/22-rdf-syntax-ns#"
     xmlns:svg="http://www.w3.org/2000/svg"
     xmlns="http://www.w3.org/2000/svg"
     xmlns:sodipodi="http://sodipodi.sourceforge.net/DTD/sodipodi-0.dtd"
     xmlns:inkscape="http://www.inkscape.org/namespaces/inkscape"
     id="svg2"
     version="1.1"
     inkscape:version="0.48.5 r10040"
     width="304.85983"
     height="279.31601"
     xml:space="preserve"
     sodipodi:docname="logo1.svg"><metadata
         id="metadata8"><rdf:RDF><cc:Work
                 rdf:about=""><dc:format>image/svg+xml</dc:format><dc:type
                     rdf:resource="http://purl.org/dc/dcmitype/StillImage" /><dc:title /></cc:Work></rdf:RDF></metadata><defs
         id="defs6"><clipPath
             clipPathUnits="userSpaceOnUse"
             id="clipPath18"><path
                 d="M 0,800 800,800 800,0 0,0 0,800 z"
                 id="path20"
                 inkscape:connector-curvature="0" /></clipPath><clipPath
             clipPathUnits="userSpaceOnUse"
             id="clipPath174"><path
                 d="M 0,800 800,800 800,0 0,0 0,800 z"
                 id="path176"
                 inkscape:connector-curvature="0" /></clipPath></defs><sodipodi:namedview
         pagecolor="#ffffff"
         bordercolor="#666666"
         borderopacity="1"
         objecttolerance="10"
         gridtolerance="10"
         guidetolerance="10"
         inkscape:pageopacity="0"
         inkscape:pageshadow="2"
         inkscape:window-width="1920"
         inkscape:window-height="1021"
         id="namedview4"
         showgrid="false"
         inkscape:zoom="0.944"
         inkscape:cx="311.66928"
         inkscape:cy="232.0072"
         inkscape:window-x="0"
         inkscape:window-y="22"
         inkscape:window-maximized="1"
         inkscape:current-layer="layer4"
         showguides="true"
         inkscape:guide-bbox="true"
         fit-margin-top="20"
         fit-margin-left="20"
         fit-margin-bottom="20"
         fit-margin-right="20"><sodipodi:guide
             orientation="0,1"
             position="67.331356,198.53668"
             id="guide6871" /><sodipodi:guide
             orientation="1,0"
             position="753.77204,82.011246"
             id="guide7246" /></sodipodi:namedview><g
         inkscape:groupmode="layer"
         id="layer4"
         inkscape:label="Logo 1"
         style="display:inline"
         sodipodi:insensitive="true"
         transform="translate(-51.312714,-260.32237)"><path
             inkscape:connector-curvature="0"
             id="path358"
             style="fill:#ededed;fill-opacity:1;fill-rule:nonzero;stroke:none"
             d="M 164.5777,364.2307 239.57769,364.2307" /><path
             inkscape:connector-curvature="0"
             id="path364"
             style="fill:#ededed;fill-opacity:1;fill-rule:nonzero;stroke:none"
             d="M 163.3277,389.2307 244.57769,389.2307" /><path
             inkscape:connector-curvature="0"
             id="path370"
             style="fill:#ededed;fill-opacity:1;fill-rule:nonzero;stroke:none"
             d="M 175.82769,414.2307 232.07769,414.2307" /><path
             inkscape:connector-curvature="0"
             id="path392"
             style="fill:#ededed;fill-opacity:1;fill-rule:nonzero;stroke:none"
             d="M 195.72544,309.46045 183.53294,281.50795" /><path
             inkscape:connector-curvature="0"
             id="path400"
             style="fill:#ededed;fill-opacity:1;fill-rule:nonzero;stroke:none"
             d="M 221.96457,281.29108 210.82082,309.67733" /><path
             inkscape:connector-curvature="0"
             id="path408"
             style="fill:gray;fill-opacity:1;fill-rule:nonzero;stroke:none"
             d="M 197.07769,495.73157 C 134.5777,495.73157 83.233947,444.75532 83.233947,382.09782 83.233947,355.32908 92.617697,329.33283 109.8452,308.89658 L 113.6152,312.11908 C 97.146447,331.65533 88.260197,356.50658 88.260197,382.09782 88.260197,441.99907 137.0777,490.73157 197.07769,490.73157 L 197.07769,495.73157 z" /><path
             inkscape:connector-curvature="0"
             id="path412"
             style="fill:#a9a9a9;fill-opacity:1;fill-rule:nonzero;stroke:none"
             d="M 187.64919,475.90732 C 189.53044,484.29607 188.00044,491.78232 184.23169,492.62732 180.46294,493.47232 175.88294,487.35732 174.00169,478.96732 172.12044,470.57857 173.65044,463.09232 177.41919,462.24732 181.18794,461.40232 185.76794,467.51857 187.64919,475.90732" /><path
             inkscape:connector-curvature="0"
             id="path416"
             style="fill:#a9a9a9;fill-opacity:1;fill-rule:nonzero;stroke:none"
             d="M 168.27757,472.7547 C 170.03132,480.57345 168.60507,487.5497 165.09257,488.3372 161.58007,489.1247 157.31257,483.42595 155.55882,475.6072 153.80507,467.78845 155.23132,460.81095 158.74382,460.02345 162.25632,459.23595 166.52382,464.93595 168.27757,472.7547" /><path
             inkscape:connector-curvature="0"
             id="path420"
             style="fill:#a9a9a9;fill-opacity:1;fill-rule:nonzero;stroke:none"
             d="M 149.7102,465.68207 C 150.7052,473.63332 148.6152,480.44082 145.04395,480.88707 141.4727,481.33457 137.77145,475.25082 136.77645,467.29957 135.78145,459.34957 137.8702,452.54207 141.4427,452.09457 145.01395,451.64832 148.7152,457.73082 149.7102,465.68207" /><path
             inkscape:connector-curvature="0"
             id="path424"
             style="fill:#a9a9a9;fill-opacity:1;fill-rule:nonzero;stroke:none"
             d="M 132.16332,453.88695 C 132.80332,461.87445 130.41332,468.58195 126.82457,468.86945 123.23707,469.15695 119.80957,462.91445 119.16957,454.92695 118.53082,446.9407 120.92082,440.23195 124.50832,439.94445 128.09707,439.6582 131.52332,445.89945 132.16332,453.88695" /><path
             inkscape:connector-curvature="0"
             id="path428"
             style="fill:#a9a9a9;fill-opacity:1;fill-rule:nonzero;stroke:none"
             d="M 115.68407,435.33345 C 115.38282,443.09345 112.31282,449.2747 108.82657,449.1397 105.34157,449.00345 102.75907,442.60345 103.06032,434.84345 103.36157,427.08345 106.43157,420.9022 109.91782,421.0372 113.40407,421.17345 115.98532,427.57345 115.68407,435.33345" /><path
             inkscape:connector-curvature="0"
             id="path432"
             style="fill:#a9a9a9;fill-opacity:1;fill-rule:nonzero;stroke:none"
             d="M 104.00595,413.89607 C 102.8147,420.94857 99.280947,426.23107 96.113447,425.69607 92.944697,425.15982 91.343447,419.00982 92.534697,411.95857 93.725947,404.90607 97.259697,399.62357 100.4272,400.15857 103.5947,400.69357 105.1972,406.84482 104.00595,413.89607" /><path
             inkscape:connector-curvature="0"
             id="path436"
             style="fill:#a9a9a9;fill-opacity:1;fill-rule:nonzero;stroke:none"
             d="M 97.853067,390.55107 C 95.115567,396.54482 90.713067,400.40732 88.020567,399.17732 85.328067,397.94732 85.364317,392.09107 88.101817,386.09732 90.839317,380.10358 95.241817,376.24108 97.934317,377.47108 100.62682,378.70108 100.59057,384.55732 97.853067,390.55107" /><path
             inkscape:connector-curvature="0"
             id="path440"
             style="fill:#a9a9a9;fill-opacity:1;fill-rule:nonzero;stroke:none"
             d="M 96.572947,366.88295 C 92.492947,371.26045 87.590447,373.3242 85.622947,371.49045 83.656697,369.65795 85.370447,364.62295 89.451697,360.24545 93.531697,355.8667 98.434197,353.8042 100.40045,355.6367 102.3667,357.47045 100.65295,362.50545 96.572947,366.88295" /><path
             inkscape:connector-curvature="0"
             id="path444"
             style="fill:#a9a9a9;fill-opacity:1;fill-rule:nonzero;stroke:none"
             d="M 102.38007,344.49295 C 97.465067,347.9067 92.236317,348.8842 90.702567,346.6767 89.168817,344.46795 91.911317,339.91045 96.826317,336.4967 101.74257,333.08295 106.97007,332.10545 108.50382,334.31295 110.03757,336.5217 107.29507,341.0792 102.38007,344.49295" /><path
             inkscape:connector-curvature="0"
             id="path448"
             style="fill:#a9a9a9;fill-opacity:1;fill-rule:nonzero;stroke:none"
             d="M 111.60945,326.91783 C 106.77945,328.82533 102.16945,328.61283 101.3132,326.44283 100.4557,324.27283 103.67695,320.96783 108.50695,319.06033 113.33695,317.15408 117.94695,317.36658 118.8032,319.53658 119.6607,321.70533 116.43945,325.01033 111.60945,326.91783" /><path
             inkscape:connector-curvature="0"
             id="path452"
             style="fill:#a9a9a9;fill-opacity:1;fill-rule:nonzero;stroke:none"
             d="M 119.82607,309.55045 C 116.00232,314.1542 111.22607,316.4942 109.15857,314.7767 107.08982,313.0592 108.51232,307.9342 112.33607,303.33045 116.15982,298.7267 120.93607,296.3867 123.00482,298.1042 125.07232,299.8217 123.64982,304.9467 119.82607,309.55045" /><path
             inkscape:connector-curvature="0"
             id="path456"
             style="fill:#a9a9a9;fill-opacity:1;fill-rule:nonzero;stroke:none"
             d="M 184.05119,507.4257 C 180.94619,515.4432 175.50994,520.81195 171.90869,519.4182 168.30745,518.0232 167.9037,510.3932 171.0087,502.3757 174.11369,494.3582 179.54994,488.98945 183.15119,490.3832 186.75244,491.7782 187.15619,499.4082 184.05119,507.4257" /><path
             inkscape:connector-curvature="0"
             id="path460"
             style="fill:#a9a9a9;fill-opacity:1;fill-rule:nonzero;stroke:none"
             d="M 162.27007,503.42932 C 158.72382,510.61432 153.23382,515.14932 150.00507,513.55557 146.77757,511.96307 147.03507,504.84682 150.58132,497.66182 154.12632,490.47557 159.61757,485.94182 162.84507,487.53432 166.07382,489.12682 165.81632,496.24307 162.27007,503.42932" /><path
             inkscape:connector-curvature="0"
             id="path464"
             style="fill:#a9a9a9;fill-opacity:1;fill-rule:nonzero;stroke:none"
             d="M 137.91407,492.02182 C 132.18657,497.62557 125.50282,500.08182 122.98532,497.50807 120.46782,494.93557 123.07157,488.30807 128.79907,482.70432 134.52657,477.10057 141.21032,474.64432 143.72782,477.21682 146.24532,479.79057 143.64157,486.41807 137.91407,492.02182" /><path
             inkscape:connector-curvature="0"
             id="path468"
             style="fill:#a9a9a9;fill-opacity:1;fill-rule:nonzero;stroke:none"
             d="M 114.5387,475.9717 C 106.9337,478.4967 99.849947,477.77545 98.714947,474.3592 97.581197,470.9442 102.8262,466.1267 110.42995,463.6017 118.03495,461.07545 125.1187,461.79795 126.2537,465.21295 127.38745,468.6292 122.1437,473.4467 114.5387,475.9717" /><path
             inkscape:connector-curvature="0"
             id="path472"
             style="fill:#a9a9a9;fill-opacity:1;fill-rule:nonzero;stroke:none"
             d="M 97.313447,437.96382 C 104.58345,440.69507 109.48095,445.55757 108.25345,448.82257 107.0272,452.08882 100.13845,452.52132 92.869697,449.78882 85.599697,447.05757 80.702197,442.19507 81.928447,438.93007 83.155947,435.66507 90.043447,435.23257 97.313447,437.96382" /><path
             inkscape:connector-curvature="0"
             id="path476"
             style="fill:#a9a9a9;fill-opacity:1;fill-rule:nonzero;stroke:none"
             d="M 86.953817,413.15807 C 92.072567,418.15307 94.402567,424.06682 92.158817,426.36557 89.913817,428.66432 83.946317,426.47932 78.827567,421.48432 73.710067,416.48932 71.380067,410.57557 73.623817,408.27682 75.867567,405.97682 81.835067,408.16307 86.953817,413.15807" /><path
             inkscape:connector-curvature="0"
             id="path480"
             style="fill:#a9a9a9;fill-opacity:1;fill-rule:nonzero;stroke:none"
             d="M 83.409447,385.77095 C 86.548197,391.5647 86.983197,397.4047 84.380697,398.8147 81.778197,400.22595 77.123197,396.6722 73.984447,390.8772 70.844447,385.08345 70.409447,379.24345 73.013197,377.83345 75.615697,376.42345 80.270697,379.9772 83.409447,385.77095" /><path
             inkscape:connector-curvature="0"
             id="path484"
             style="fill:#a9a9a9;fill-opacity:1;fill-rule:nonzero;stroke:none"
             d="M 84.687067,359.3722 C 88.489567,363.99345 89.889567,369.1247 87.814567,370.83345 85.738317,372.54095 80.972067,370.1797 77.169567,365.55845 73.367067,360.9372 71.967067,355.80595 74.042067,354.09845 76.118317,352.3897 80.884567,354.75095 84.687067,359.3722" /><path
             inkscape:connector-curvature="0"
             id="path488"
             style="fill:#a9a9a9;fill-opacity:1;fill-rule:nonzero;stroke:none"
             d="M 93.450817,334.4197 C 94.167067,340.36095 92.583317,345.4397 89.914567,345.76095 87.245817,346.0822 84.500817,341.52595 83.784567,335.5847 83.069567,329.6422 84.652067,324.5647 87.320817,324.24345 89.990817,323.9222 92.734567,328.47845 93.450817,334.4197" /><path
             inkscape:connector-curvature="0"
             id="path492"
             style="fill:#a9a9a9;fill-opacity:1;fill-rule:nonzero;stroke:none"
             d="M 104.38807,315.54133 C 104.09057,320.72508 101.96182,324.82008 99.633067,324.68633 97.304317,324.55258 95.658067,320.24258 95.954317,315.05758 96.251817,309.87383 98.380567,305.77883 100.70932,305.91258 103.03807,306.04633 104.68557,310.35758 104.38807,315.54133" /><path
             inkscape:connector-curvature="0"
             id="path496"
             style="fill:gray;fill-opacity:1;fill-rule:nonzero;stroke:none"
             d="M 210.82769,495.73157 210.82769,490.73157 C 270.82769,490.73157 319.46019,441.99907 319.46019,382.09782 319.46019,356.50658 310.39144,331.65408 293.92269,312.11908 L 297.74519,308.89658 C 314.97269,329.33158 324.46144,355.32908 324.46144,382.09782 324.46144,444.75532 273.32769,495.73157 210.82769,495.73157" /><path
             inkscape:connector-curvature="0"
             id="path500"
             style="fill:#a9a9a9;fill-opacity:1;fill-rule:nonzero;stroke:none"
             d="M 219.83594,475.90732 C 217.95469,484.29607 219.48469,491.78232 223.25344,492.62732 227.02219,493.47232 231.60219,487.35732 233.48344,478.96732 235.36469,470.57857 233.83469,463.09232 230.06594,462.24732 226.29719,461.40232 221.71719,467.51857 219.83594,475.90732" /><path
             inkscape:connector-curvature="0"
             id="path504"
             style="fill:#a9a9a9;fill-opacity:1;fill-rule:nonzero;stroke:none"
             d="M 239.20757,472.7547 C 237.45382,480.57345 238.88007,487.5497 242.39257,488.3372 245.90507,489.1247 250.17257,483.42595 251.92632,475.6072 253.68007,467.78845 252.25382,460.81095 248.74132,460.02345 245.22882,459.23595 240.96132,464.93595 239.20757,472.7547" /><path
             inkscape:connector-curvature="0"
             id="path508"
             style="fill:#a9a9a9;fill-opacity:1;fill-rule:nonzero;stroke:none"
             d="M 257.77494,465.68207 C 256.77994,473.63332 258.86994,480.44082 262.44119,480.88707 266.01244,481.33457 269.71369,475.25082 270.70869,467.29957 271.70369,459.34957 269.61494,452.54207 266.04244,452.09457 262.47119,451.64832 258.76994,457.73082 257.77494,465.68207" /><path
             inkscape:connector-curvature="0"
             id="path512"
             style="fill:#a9a9a9;fill-opacity:1;fill-rule:nonzero;stroke:none"
             d="M 275.32182,453.88695 C 274.68182,461.87445 277.07182,468.58195 280.66057,468.86945 284.24807,469.15695 287.67557,462.91445 288.31557,454.92695 288.95432,446.9407 286.56432,440.23195 282.97682,439.94445 279.38807,439.6582 275.96182,445.89945 275.32182,453.88695" /><path
             inkscape:connector-curvature="0"
             id="path516"
             style="fill:#a9a9a9;fill-opacity:1;fill-rule:nonzero;stroke:none"
             d="M 291.80119,435.33345 C 292.10244,443.09345 295.17244,449.2747 298.65869,449.1397 302.14369,449.00345 304.72619,442.60345 304.42494,434.84345 304.12369,427.08345 301.05369,420.9022 297.56744,421.0372 294.08119,421.17345 291.49994,427.57345 291.80119,435.33345" /><path
             inkscape:connector-curvature="0"
             id="path520"
             style="fill:#a9a9a9;fill-opacity:1;fill-rule:nonzero;stroke:none"
             d="M 303.47919,413.89607 C 304.67044,420.94857 308.20419,426.23107 311.37169,425.69607 314.54044,425.15982 316.14169,419.00982 314.95044,411.95857 313.75919,404.90607 310.22544,399.62357 307.05794,400.15857 303.89044,400.69357 302.28794,406.84482 303.47919,413.89607" /><path
             inkscape:connector-curvature="0"
             id="path524"
             style="fill:#a9a9a9;fill-opacity:1;fill-rule:nonzero;stroke:none"
             d="M 309.63219,390.55107 C 312.36969,396.54482 316.77219,400.40732 319.46469,399.17732 322.15719,397.94732 322.12094,392.09107 319.38344,386.09732 316.64594,380.10358 312.24344,376.24108 309.55094,377.47108 306.85844,378.70108 306.89469,384.55732 309.63219,390.55107" /><path
             inkscape:connector-curvature="0"
             id="path528"
             style="fill:#a9a9a9;fill-opacity:1;fill-rule:nonzero;stroke:none"
             d="M 310.91219,366.88295 C 314.99219,371.26045 319.89469,373.3242 321.86219,371.49045 323.82844,369.65795 322.11469,364.62295 318.03344,360.24545 313.95344,355.8667 309.05094,353.8042 307.08469,355.6367 305.11844,357.47045 306.83219,362.50545 310.91219,366.88295" /><path
             inkscape:connector-curvature="0"
             id="path532"
             style="fill:#a9a9a9;fill-opacity:1;fill-rule:nonzero;stroke:none"
             d="M 305.10507,344.49295 C 310.02007,347.9067 315.24882,348.8842 316.78257,346.6767 318.31632,344.46795 315.57382,339.91045 310.65882,336.4967 305.74257,333.08295 300.51507,332.10545 298.98132,334.31295 297.44757,336.5217 300.19007,341.0792 305.10507,344.49295" /><path
             inkscape:connector-curvature="0"
             id="path536"
             style="fill:#a9a9a9;fill-opacity:1;fill-rule:nonzero;stroke:none"
             d="M 295.87582,326.91783 C 300.70582,328.82533 305.31582,328.61283 306.17207,326.44283 307.02957,324.27283 303.80832,320.96783 298.97832,319.06033 294.14832,317.15408 289.53832,317.36658 288.68207,319.53658 287.82457,321.70533 291.04582,325.01033 295.87582,326.91783" /><path
             inkscape:connector-curvature="0"
             id="path540"
             style="fill:#a9a9a9;fill-opacity:1;fill-rule:nonzero;stroke:none"
             d="M 287.65919,309.55045 C 291.48294,314.1542 296.25919,316.4942 298.32669,314.7767 300.39544,313.0592 298.97294,307.9342 295.14919,303.33045 291.32544,298.7267 286.54919,296.3867 284.48044,298.1042 282.41294,299.8217 283.83544,304.9467 287.65919,309.55045" /><path
             inkscape:connector-curvature="0"
             id="path544"
             style="fill:#a9a9a9;fill-opacity:1;fill-rule:nonzero;stroke:none"
             d="M 223.43394,507.4257 C 226.53894,515.4432 231.97519,520.81195 235.57644,519.4182 239.17769,518.0232 239.58144,510.3932 236.47644,502.3757 233.37144,494.3582 227.93519,488.98945 224.33394,490.3832 220.73269,491.7782 220.32894,499.4082 223.43394,507.4257" /><path
             inkscape:connector-curvature="0"
             id="path548"
             style="fill:#a9a9a9;fill-opacity:1;fill-rule:nonzero;stroke:none"
             d="M 245.21507,503.42932 C 248.76132,510.61432 254.25132,515.14932 257.48007,513.55557 260.70757,511.96307 260.45007,504.84682 256.90382,497.66182 253.35882,490.47557 247.86757,485.94182 244.64007,487.53432 241.41132,489.12682 241.66882,496.24307 245.21507,503.42932" /><path
             inkscape:connector-curvature="0"
             id="path552"
             style="fill:#a9a9a9;fill-opacity:1;fill-rule:nonzero;stroke:none"
             d="M 269.57119,492.02182 C 275.29869,497.62557 281.98244,500.08182 284.49994,497.50807 287.01744,494.93557 284.41369,488.30807 278.68619,482.70432 272.95869,477.10057 266.27494,474.64432 263.75744,477.21682 261.23994,479.79057 263.84369,486.41807 269.57119,492.02182" /><path
             inkscape:connector-curvature="0"
             id="path556"
             style="fill:#a9a9a9;fill-opacity:1;fill-rule:nonzero;stroke:none"
             d="M 292.94644,475.9717 C 300.55144,478.4967 307.63519,477.77545 308.77019,474.3592 309.90394,470.9442 304.65894,466.1267 297.05519,463.6017 289.45019,461.07545 282.36644,461.79795 281.23144,465.21295 280.09769,468.6292 285.34269,473.4467 292.94644,475.9717" /><path
             inkscape:connector-curvature="0"
             id="path560"
             style="fill:#a9a9a9;fill-opacity:1;fill-rule:nonzero;stroke:none"
             d="M 310.17182,437.96382 C 302.90182,440.69507 298.00432,445.55757 299.23182,448.82257 300.45807,452.08882 307.34682,452.52132 314.61557,449.78882 321.88557,447.05757 326.78307,442.19507 325.55682,438.93007 324.32932,435.66507 317.44182,435.23257 310.17182,437.96382" /><path
             inkscape:connector-curvature="0"
             id="path564"
             style="fill:#a9a9a9;fill-opacity:1;fill-rule:nonzero;stroke:none"
             d="M 320.53144,413.15807 C 315.41269,418.15307 313.08269,424.06682 315.32644,426.36557 317.57144,428.66432 323.53894,426.47932 328.65769,421.48432 333.77519,416.48932 336.10519,410.57557 333.86144,408.27682 331.61769,405.97682 325.65019,408.16307 320.53144,413.15807" /><path
             inkscape:connector-curvature="0"
             id="path568"
             style="fill:#a9a9a9;fill-opacity:1;fill-rule:nonzero;stroke:none"
             d="M 324.07582,385.77095 C 320.93707,391.5647 320.50207,397.4047 323.10457,398.8147 325.70707,400.22595 330.36207,396.6722 333.50082,390.8772 336.64082,385.08345 337.07582,379.24345 334.47207,377.83345 331.86957,376.42345 327.21457,379.9772 324.07582,385.77095" /><path
             inkscape:connector-curvature="0"
             id="path572"
             style="fill:#a9a9a9;fill-opacity:1;fill-rule:nonzero;stroke:none"
             d="M 322.79819,359.3722 C 318.99569,363.99345 317.59569,369.1247 319.67069,370.83345 321.74694,372.54095 326.51319,370.1797 330.31569,365.55845 334.11819,360.9372 335.51819,355.80595 333.44319,354.09845 331.36694,352.3897 326.60069,354.75095 322.79819,359.3722" /><path
             inkscape:connector-curvature="0"
             id="path576"
             style="fill:#a9a9a9;fill-opacity:1;fill-rule:nonzero;stroke:none"
             d="M 314.03432,334.4197 C 313.31807,340.36095 314.90182,345.4397 317.57057,345.76095 320.23932,346.0822 322.98432,341.52595 323.70057,335.5847 324.41557,329.6422 322.83307,324.5647 320.16432,324.24345 317.49432,323.9222 314.75057,328.47845 314.03432,334.4197" /><path
             inkscape:connector-curvature="0"
             id="path580"
             style="fill:#a9a9a9;fill-opacity:1;fill-rule:nonzero;stroke:none"
             d="M 303.09707,315.54133 C 303.39457,320.72508 305.52332,324.82008 307.85207,324.68633 310.18082,324.55258 311.82707,320.24258 311.53082,315.05758 311.23332,309.87383 309.10457,305.77883 306.77582,305.91258 304.44707,306.04633 302.79957,310.35758 303.09707,315.54133" /><g
             id="g6892"><g
                 id="g6886"><path
                     inkscape:connector-curvature="0"
                     id="path342"
                     style="fill:#ffd700;fill-opacity:1;fill-rule:nonzero;stroke:none"
                     d="M 226.56532,321.83233 C 226.56532,334.74233 216.10032,345.20733 203.19032,345.20733 190.28157,345.20733 179.81657,334.74233 179.81657,321.83233 179.81657,308.92358 190.28157,298.45733 203.19032,298.45733 216.10032,298.45733 226.56532,308.92358 226.56532,321.83233" /><path
                     inkscape:connector-curvature="0"
                     id="path346"
                     style="fill:gray;fill-opacity:1;fill-rule:nonzero;stroke:none"
                     d="M 203.19094,300.95795 C 191.68094,300.95795 182.31594,310.32295 182.31594,321.83295 182.31594,333.34295 191.68094,342.7067 203.19094,342.7067 214.70094,342.7067 224.06469,333.34295 224.06469,321.83295 224.06469,310.32295 214.70094,300.95795 203.19094,300.95795 M 203.19094,347.7067 C 188.92344,347.7067 177.31594,336.0992 177.31594,321.83295 177.31594,307.56545 188.92344,295.95795 203.19094,295.95795 217.45844,295.95795 229.06469,307.56545 229.06469,321.83295 229.06469,336.0992 217.45844,347.7067 203.19094,347.7067" /><path
                     inkscape:connector-curvature="0"
                     id="path396"
                     style="fill:gray;fill-opacity:1;fill-rule:nonzero;stroke:none"
                     d="M 193.43444,302.49446 181.24194,281.89227 185.82444,280.4191 198.01694,301.02038 193.43444,302.49446 z" /><path
                     inkscape:connector-curvature="0"
                     id="path404"
                     style="fill:gray;fill-opacity:1;fill-rule:nonzero;stroke:none"
                     d="M 213.14769,302.5912 208.49269,301.24425 219.63769,280.32237 224.29269,281.66931 213.14769,302.5912 z" /></g><g
                 id="g6879"><path
                     inkscape:connector-curvature="0"
                     id="path350"
                     style="fill:#ffd700;fill-opacity:1;fill-rule:nonzero;stroke:none"
                     d="M 244.49357,374.28633 C 244.49357,397.44257 226.32107,435.84132 203.90357,435.84132 181.48607,435.84132 163.31232,397.44257 163.31232,374.28633 163.31232,351.13008 181.48607,332.35758 203.90357,332.35758 226.32107,332.35758 244.49357,351.13008 244.49357,374.28633" /><path
                     inkscape:connector-curvature="0"
                     id="path354"
                     style="fill:gray;fill-opacity:1;fill-rule:nonzero;stroke:none"
                     d="M 203.90319,334.85758 C 182.89944,334.85758 165.81195,352.54508 165.81195,374.28633 165.81195,396.53382 183.61569,433.34132 203.90319,433.34132 224.19069,433.34132 241.99319,396.53382 241.99319,374.28633 241.99319,352.54508 224.90569,334.85758 203.90319,334.85758 M 203.90319,438.34132 C 180.11694,438.34132 160.81195,399.58132 160.81195,374.28633 160.81195,349.78758 180.14319,329.85758 203.90319,329.85758 227.66319,329.85758 246.99319,349.78758 246.99319,374.28633 246.99319,399.58132 227.68944,438.34132 203.90319,438.34132" /><path
                     d="M 239.57769,366.7307 164.5777,366.7307 164.5777,361.7307 239.57769,361.7307 239.57769,366.7307 z"
                     style="fill:gray;fill-opacity:1;fill-rule:nonzero;stroke:none"
                     id="path360"
                     inkscape:connector-curvature="0" /><path
                     d="M 244.57769,391.7307 163.3277,391.7307 163.3277,386.7307 244.57769,386.7307 244.57769,391.7307 z"
                     style="fill:gray;fill-opacity:1;fill-rule:nonzero;stroke:none"
                     id="path366"
                     inkscape:connector-curvature="0" /><path
                     d="M 232.07769,416.7307 175.82769,416.7307 175.82769,411.7307 232.07769,411.7307 232.07769,416.7307 z"
                     style="fill:gray;fill-opacity:1;fill-rule:nonzero;stroke:none"
                     id="path372"
                     inkscape:connector-curvature="0" /></g><g
                 id="g6873"><path
                     inkscape:connector-curvature="0"
                     id="path384"
                     style="fill:#ededed;fill-opacity:1;fill-rule:nonzero;stroke:none"
                     d="M 141.15018,388.45466 C 146.6157,371.58652 169.68457,339.25035 183.13521,345.67415 196.58583,352.09794 195.32521,394.84937 189.85969,411.71751 184.39416,428.58565 169.05938,437.05226 155.60876,430.62847 142.15813,424.20467 135.68465,405.3228 141.15018,388.45466" /><path
                     inkscape:connector-curvature="0"
                     id="path388"
                     style="fill:gray;fill-opacity:1;fill-rule:nonzero;stroke:none"
                     d="M 143.91235,389.77345 C 139.05471,404.76549 144.78876,421.58858 156.69548,427.27503 168.60081,432.96082 182.23898,425.38958 187.09662,410.39754 192.26446,394.44817 193.20168,354.3534 182.04897,349.02705 170.89627,343.70071 149.08018,373.82408 143.91235,389.77345 M 192.62049,413.03565 C 186.56447,431.72623 169.47426,441.12207 154.52253,433.98137 139.57078,426.84066 132.33245,405.82592 138.38847,387.13534 143.78664,370.4751 167.91268,334.53169 184.22193,342.32071 200.53116,350.10972 198.01866,396.37541 192.62049,413.03565" /><path
                     inkscape:connector-curvature="0"
                     id="path384-7"
                     style="fill:#ededed;fill-opacity:1;fill-rule:nonzero;stroke:none;display:inline"
                     d="M 267.91694,388.42416 C 262.45142,371.55602 239.38255,339.21985 225.93191,345.64365 212.48129,352.06744 213.74191,394.81887 219.20743,411.68701 224.67296,428.55515 240.00774,437.02176 253.45836,430.59797 266.90899,424.17417 273.38247,405.2923 267.91694,388.42416" /><path
                     inkscape:connector-curvature="0"
                     id="path388-1"
                     style="fill:gray;fill-opacity:1;fill-rule:nonzero;stroke:none;display:inline"
                     d="M 265.15477,389.74295 C 270.01241,404.73499 264.27836,421.55808 252.37164,427.24453 240.46631,432.93032 226.82814,425.35908 221.9705,410.36704 216.80266,394.41767 215.86544,354.3229 227.01815,348.99655 238.17085,343.67021 259.98694,373.79358 265.15477,389.74295 M 216.44663,413.00515 C 222.50265,431.69573 239.59286,441.09157 254.54459,433.95087 269.49634,426.81016 276.73467,405.79542 270.67865,387.10484 265.28048,370.4446 241.15444,334.50119 224.84519,342.29021 208.53596,350.07922 211.04846,396.34491 216.44663,413.00515" /></g></g></g></svg>